<?xml version="1.0" encoding="us-ascii" standalone="no"?><svg xmlns="http://www.w3.org/2000/svg" xmlns:xlink="http://www.w3.org/1999/xlink" contentStyleType="text/css" height="1262px" preserveAspectRatio="none" style="width:2356px;height:1262px;background:#FFFFFF;" version="1.1" viewBox="0 0 2356 1262" width="2356px" zoomAndPan="magnify"><defs/><g><!--cluster trabalho2--><g id="cluster_trabalho2"><path d="M8.5,6.0137 L75.5,6.0137 A3.75,3.75 0 0 1 78,8.5137 L85,30.6348 L2346.5,30.6348 A2.5,2.5 0 0 1 2349,33.1348 L2349,1252.5137 A2.5,2.5 0 0 1 2346.5,1255.0137 L8.5,1255.0137 A2.5,2.5 0 0 1 6,1252.5137 L6,8.5137 A2.5,2.5 0 0 1 8.5,6.0137 " fill="#DDDDDD" style="stroke:#000000;stroke-width:1.5;"/><line style="stroke:#000000;stroke-width:1.5;" x1="6" x2="85" y1="30.6348" y2="30.6348"/><text fill="#000000" font-family="sans-serif" font-size="14" font-weight="bold" lengthAdjust="spacing" textLength="66" x="10" y="23.1211">trabalho2</text></g><!--cluster usuarios--><g id="cluster_usuarios"><rect fill="#BBBBBB" height="393" rx="2.5" ry="2.5" style="stroke:#181818;stroke-width:1.0;" width="1026" x="1291" y="465.0137"/><path d="M1362,465.0137 L1362,476.6348 L1352,486.6348 L1291,486.6348 " fill="none" style="stroke:#181818;stroke-width:1.0;"/><text fill="#000000" font-family="sans-serif" font-size="14" font-weight="bold" lengthAdjust="spacing" textLength="61" x="1294" y="481.1211">usuarios</text></g><!--cluster itens--><g id="cluster_itens"><rect fill="#BBBBBB" height="528.5" rx="2.5" ry="2.5" style="stroke:#181818;stroke-width:1.0;" width="489" x="762" y="694.5137"/><path d="M807,694.5137 L807,706.1348 L797,716.1348 L762,716.1348 " fill="none" style="stroke:#181818;stroke-width:1.0;"/><text fill="#000000" font-family="sans-serif" font-size="14" font-weight="bold" lengthAdjust="spacing" textLength="35" x="765" y="710.6211">itens</text></g><!--cluster exceptions--><g id="cluster_exceptions"><rect fill="#BBBBBB" height="491.5" rx="2.5" ry="2.5" style="stroke:#181818;stroke-width:1.0;" width="684" x="38" y="521.0137"/><path d="M126,521.0137 L126,532.6348 L116,542.6348 L38,542.6348 " fill="none" style="stroke:#181818;stroke-width:1.0;"/><text fill="#000000" font-family="sans-serif" font-size="14" font-weight="bold" lengthAdjust="spacing" textLength="78" x="41" y="537.1211">exceptions</text></g><!--class Main--><g id="elem_Main"><rect codeLine="2" fill="#F1F1F1" height="66.6211" id="Main" rx="2.5" ry="2.5" style="stroke:#181818;stroke-width:0.5;" width="141" x="699.5" y="43.0137"/><ellipse cx="750.75" cy="59.0137" fill="#ADD1B2" rx="11" ry="11" style="stroke:#181818;stroke-width:1.0;"/><path d="M753.5156,54.8887 Q753.6719,54.6699 753.8594,54.5605 Q754.0469,54.4512 754.2656,54.4512 Q754.6406,54.4512 754.875,54.7168 Q755.1094,54.9668 755.1094,55.5762 L755.1094,57.0293 Q755.1094,57.6387 754.875,57.9043 Q754.6406,58.1699 754.2656,58.1699 Q753.9219,58.1699 753.7188,57.9668 Q753.5156,57.7793 753.4063,57.2637 Q753.3594,56.9043 753.1719,56.7168 Q752.8438,56.3418 752.2344,56.123 Q751.625,55.9043 751,55.9043 Q750.2344,55.9043 749.5938,56.2324 Q748.9688,56.5605 748.4688,57.3105 Q747.9844,58.0605 747.9844,59.0918 L747.9844,60.1855 Q747.9844,61.4199 748.875,62.248 Q749.7656,63.0605 751.3594,63.0605 Q752.2969,63.0605 752.9531,62.8105 Q753.3438,62.6543 753.7656,62.2168 Q754.0313,61.9512 754.1719,61.873 Q754.3281,61.7949 754.5313,61.7949 Q754.8594,61.7949 755.1094,62.0605 Q755.375,62.3105 755.375,62.6543 Q755.375,62.998 755.0313,63.4043 Q754.5313,63.9824 753.7344,64.3105 Q752.6563,64.7637 751.3594,64.7637 Q749.8438,64.7637 748.6406,64.1387 Q747.6563,63.6387 746.9688,62.5762 Q746.2813,61.498 746.2813,60.2168 L746.2813,59.0605 Q746.2813,57.7324 746.8906,56.5918 Q747.5156,55.4355 748.6094,54.8262 Q749.7031,54.2012 750.9375,54.2012 Q751.6719,54.2012 752.3125,54.373 Q752.9688,54.5293 753.5156,54.8887 Z " fill="#000000"/><text fill="#000000" font-family="sans-serif" font-size="14" lengthAdjust="spacing" textLength="30" x="771.25" y="64.8105">Main</text><line style="stroke:#181818;stroke-width:0.5;" x1="700.5" x2="839.5" y1="75.0137" y2="75.0137"/><line style="stroke:#181818;stroke-width:0.5;" x1="700.5" x2="839.5" y1="83.0137" y2="83.0137"/><ellipse cx="710.5" cy="97.8242" fill="#84BE84" rx="3" ry="3" style="stroke:#038048;stroke-width:1.0;"/><text fill="#000000" font-family="sans-serif" font-size="14" lengthAdjust="spacing" text-decoration="underline" textLength="115" x="719.5" y="102.1211">void main(String[])</text></g><!--class Biblioteca--><g id="elem_Biblioteca"><rect codeLine="5" fill="#F1F1F1" height="271.4531" id="Biblioteca" rx="2.5" ry="2.5" style="stroke:#181818;stroke-width:0.5;" width="204" x="668" y="170.0137"/><ellipse cx="735.25" cy="186.0137" fill="#ADD1B2" rx="11" ry="11" style="stroke:#181818;stroke-width:1.0;"/><path d="M738.0156,181.8887 Q738.1719,181.6699 738.3594,181.5605 Q738.5469,181.4512 738.7656,181.4512 Q739.1406,181.4512 739.375,181.7168 Q739.6094,181.9668 739.6094,182.5762 L739.6094,184.0293 Q739.6094,184.6387 739.375,184.9043 Q739.1406,185.1699 738.7656,185.1699 Q738.4219,185.1699 738.2188,184.9668 Q738.0156,184.7793 737.9063,184.2637 Q737.8594,183.9043 737.6719,183.7168 Q737.3438,183.3418 736.7344,183.123 Q736.125,182.9043 735.5,182.9043 Q734.7344,182.9043 734.0938,183.2324 Q733.4688,183.5605 732.9688,184.3105 Q732.4844,185.0605 732.4844,186.0918 L732.4844,187.1855 Q732.4844,188.4199 733.375,189.248 Q734.2656,190.0605 735.8594,190.0605 Q736.7969,190.0605 737.4531,189.8105 Q737.8438,189.6543 738.2656,189.2168 Q738.5313,188.9512 738.6719,188.873 Q738.8281,188.7949 739.0313,188.7949 Q739.3594,188.7949 739.6094,189.0605 Q739.875,189.3105 739.875,189.6543 Q739.875,189.998 739.5313,190.4043 Q739.0313,190.9824 738.2344,191.3105 Q737.1563,191.7637 735.8594,191.7637 Q734.3438,191.7637 733.1406,191.1387 Q732.1563,190.6387 731.4688,189.5762 Q730.7813,188.498 730.7813,187.2168 L730.7813,186.0605 Q730.7813,184.7324 731.3906,183.5918 Q732.0156,182.4355 733.1094,181.8262 Q734.2031,181.2012 735.4375,181.2012 Q736.1719,181.2012 736.8125,181.373 Q737.4688,181.5293 738.0156,181.8887 Z " fill="#000000"/><text fill="#000000" font-family="sans-serif" font-size="14" lengthAdjust="spacing" textLength="61" x="755.75" y="191.8105">Biblioteca</text><line style="stroke:#181818;stroke-width:0.5;" x1="669" x2="871" y1="202.0137" y2="202.0137"/><polygon fill="none" points="679,212.8242,675,218.8242,683,218.8242" style="stroke:#1963A0;stroke-width:1.0;"/><text fill="#000000" font-family="sans-serif" font-size="14" lengthAdjust="spacing" textLength="164" x="688" y="221.1211">ArrayList&lt;Item&gt; inventario</text><polygon fill="none" points="679,231.4453,675,237.4453,683,237.4453" style="stroke:#1963A0;stroke-width:1.0;"/><text fill="#000000" font-family="sans-serif" font-size="14" lengthAdjust="spacing" textLength="178" x="688" y="239.7422">ArrayList&lt;Usuario&gt; usuarios</text><line style="stroke:#181818;stroke-width:0.5;" x1="669" x2="871" y1="247.2559" y2="247.2559"/><ellipse cx="679" cy="262.0664" fill="#84BE84" rx="3" ry="3" style="stroke:#038048;stroke-width:1.0;"/><text fill="#000000" font-family="sans-serif" font-size="14" lengthAdjust="spacing" textLength="121" x="688" y="266.3633">void cadastroItem()</text><ellipse cx="679" cy="280.6875" fill="#84BE84" rx="3" ry="3" style="stroke:#038048;stroke-width:1.0;"/><text fill="#000000" font-family="sans-serif" font-size="14" lengthAdjust="spacing" textLength="119" x="688" y="284.9844">void consultaItem()</text><ellipse cx="679" cy="299.3086" fill="#84BE84" rx="3" ry="3" style="stroke:#038048;stroke-width:1.0;"/><text fill="#000000" font-family="sans-serif" font-size="14" lengthAdjust="spacing" textLength="130" x="688" y="303.6055">void emprestarItem()</text><ellipse cx="679" cy="317.9297" fill="#84BE84" rx="3" ry="3" style="stroke:#038048;stroke-width:1.0;"/><text fill="#000000" font-family="sans-serif" font-size="14" lengthAdjust="spacing" textLength="120" x="688" y="322.2266">void devolverItem()</text><ellipse cx="679" cy="336.5508" fill="#84BE84" rx="3" ry="3" style="stroke:#038048;stroke-width:1.0;"/><text fill="#000000" font-family="sans-serif" font-size="14" lengthAdjust="spacing" textLength="143" x="688" y="340.8477">void cadastroUsuario()</text><rect fill="#F24D5C" height="6" style="stroke:#C82930;stroke-width:1.0;" width="6" x="676" y="352.1719"/><text fill="#000000" font-family="sans-serif" font-size="14" lengthAdjust="spacing" textLength="115" x="688" y="359.4688">Item busca(String)</text><rect fill="#F24D5C" height="6" style="stroke:#C82930;stroke-width:1.0;" width="6" x="676" y="370.793"/><text fill="#000000" font-family="sans-serif" font-size="14" lengthAdjust="spacing" textLength="107" x="688" y="378.0898">Usuario login(int)</text><ellipse cx="679" cy="392.4141" fill="#84BE84" rx="3" ry="3" style="stroke:#038048;stroke-width:1.0;"/><text fill="#000000" font-family="sans-serif" font-size="14" lengthAdjust="spacing" textLength="103" x="688" y="396.7109">void listarItems()</text><ellipse cx="679" cy="411.0352" fill="#84BE84" rx="3" ry="3" style="stroke:#038048;stroke-width:1.0;"/><text fill="#000000" font-family="sans-serif" font-size="14" lengthAdjust="spacing" textLength="125" x="688" y="415.332">void listarUsuarios()</text><ellipse cx="679" cy="429.6563" fill="#84BE84" rx="3" ry="3" style="stroke:#038048;stroke-width:1.0;"/><text fill="#000000" font-family="sans-serif" font-size="14" lengthAdjust="spacing" textLength="168" x="688" y="433.9531">void emprestimosUsuario()</text></g><!--class Emprestimo--><g id="elem_Emprestimo"><rect codeLine="19" fill="#F1F1F1" height="141.1055" id="Emprestimo" rx="2.5" ry="2.5" style="stroke:#181818;stroke-width:0.5;" width="214" x="928" y="519.5137"/><ellipse cx="953.35" cy="535.5137" fill="#ADD1B2" rx="11" ry="11" style="stroke:#181818;stroke-width:1.0;"/><path d="M956.1156,531.3887 Q956.2719,531.1699 956.4594,531.0605 Q956.6469,530.9512 956.8656,530.9512 Q957.2406,530.9512 957.475,531.2168 Q957.7094,531.4668 957.7094,532.0762 L957.7094,533.5293 Q957.7094,534.1387 957.475,534.4043 Q957.2406,534.6699 956.8656,534.6699 Q956.5219,534.6699 956.3188,534.4668 Q956.1156,534.2793 956.0063,533.7637 Q955.9594,533.4043 955.7719,533.2168 Q955.4438,532.8418 954.8344,532.623 Q954.225,532.4043 953.6,532.4043 Q952.8344,532.4043 952.1938,532.7324 Q951.5688,533.0605 951.0688,533.8105 Q950.5844,534.5605 950.5844,535.5918 L950.5844,536.6855 Q950.5844,537.9199 951.475,538.748 Q952.3656,539.5605 953.9594,539.5605 Q954.8969,539.5605 955.5531,539.3105 Q955.9438,539.1543 956.3656,538.7168 Q956.6313,538.4512 956.7719,538.373 Q956.9281,538.2949 957.1313,538.2949 Q957.4594,538.2949 957.7094,538.5605 Q957.975,538.8105 957.975,539.1543 Q957.975,539.498 957.6313,539.9043 Q957.1313,540.4824 956.3344,540.8105 Q955.2563,541.2637 953.9594,541.2637 Q952.4438,541.2637 951.2406,540.6387 Q950.2563,540.1387 949.5688,539.0762 Q948.8813,537.998 948.8813,536.7168 L948.8813,535.5605 Q948.8813,534.2324 949.4906,533.0918 Q950.1156,531.9355 951.2094,531.3262 Q952.3031,530.7012 953.5375,530.7012 Q954.2719,530.7012 954.9125,530.873 Q955.5688,531.0293 956.1156,531.3887 Z " fill="#000000"/><text fill="#000000" font-family="sans-serif" font-size="14" lengthAdjust="spacing" textLength="74" x="969.65" y="541.3105">Emprestimo</text><rect fill="#FFFFFF" height="17.9609" style="stroke:#181818;stroke-width:1.0;stroke-dasharray:2.0,2.0;" width="83" x="1062" y="516.5137"/><text fill="#000000" font-family="sans-serif" font-size="12" font-style="italic" lengthAdjust="spacing" textLength="81" x="1063" y="530.4629">T extends Item</text><line style="stroke:#181818;stroke-width:0.5;" x1="929" x2="1141" y1="551.5137" y2="551.5137"/><rect fill="none" height="6" style="stroke:#C82930;stroke-width:1.0;" width="6" x="936" y="563.3242"/><text fill="#000000" font-family="sans-serif" font-size="14" lengthAdjust="spacing" textLength="88" x="948" y="570.6211">T emprestado</text><rect fill="none" height="6" style="stroke:#C82930;stroke-width:1.0;" width="6" x="936" y="581.9453"/><text fill="#000000" font-family="sans-serif" font-size="14" lengthAdjust="spacing" textLength="170" x="948" y="589.2422">LocalDate dataEmprestimo</text><rect fill="none" height="6" style="stroke:#C82930;stroke-width:1.0;" width="6" x="936" y="600.5664"/><text fill="#000000" font-family="sans-serif" font-size="14" lengthAdjust="spacing" textLength="163" x="948" y="607.8633">LocalDate dataDevolucao</text><line style="stroke:#181818;stroke-width:0.5;" x1="929" x2="1141" y1="615.377" y2="615.377"/><ellipse cx="939" cy="630.1875" fill="#84BE84" rx="3" ry="3" style="stroke:#038048;stroke-width:1.0;"/><text fill="#000000" font-family="sans-serif" font-size="14" lengthAdjust="spacing" textLength="142" x="948" y="634.4844">void devolver(Usuario)</text><ellipse cx="939" cy="648.8086" fill="#84BE84" rx="3" ry="3" style="stroke:#038048;stroke-width:1.0;"/><text fill="#000000" font-family="sans-serif" font-size="14" lengthAdjust="spacing" textLength="188" x="948" y="653.1055">double calcularMulta(Usuario)</text></g><!--class Usuario--><g id="elem_Usuario"><rect codeLine="31" fill="#F1F1F1" height="159.7266" id="Usuario" rx="2.5" ry="2.5" style="stroke:#181818;stroke-width:0.5;" width="421" x="1597.5" y="510.0137"/><ellipse cx="1779.25" cy="526.0137" fill="#A9DCDF" rx="11" ry="11" style="stroke:#181818;stroke-width:1.0;"/><path d="M1781.4375,527.7793 L1777.2969,527.7793 L1776.875,528.8105 L1777.2969,528.8105 Q1777.9063,528.8105 1778.1719,529.0449 Q1778.4375,529.2793 1778.4375,529.6699 Q1778.4375,530.0449 1778.1719,530.2793 Q1777.9063,530.5137 1777.2969,530.5137 L1775,530.5137 Q1774.3906,530.5137 1774.1406,530.2793 Q1773.875,530.0449 1773.875,529.6543 Q1773.875,529.2793 1774.1563,529.0449 Q1774.4219,528.7949 1775.0469,528.8105 L1777.7188,522.1543 L1776.6094,522.1543 Q1776,522.1543 1775.7344,521.9199 Q1775.4688,521.6855 1775.4688,521.2949 Q1775.4688,520.9199 1775.7344,520.6855 Q1776,520.4512 1776.6094,520.4512 L1780.2813,520.4512 L1783.6719,528.8105 Q1784.2656,528.8105 1784.4531,528.9512 Q1784.8438,529.2168 1784.8438,529.6699 Q1784.8438,530.0449 1784.5781,530.2793 Q1784.3281,530.5137 1783.7188,530.5137 L1781.4219,530.5137 Q1780.8125,530.5137 1780.5469,530.2793 Q1780.2813,530.0449 1780.2813,529.6543 Q1780.2813,529.2793 1780.5469,529.0449 Q1780.8125,528.8105 1781.4219,528.8105 L1781.8438,528.8105 L1781.4375,527.7793 Z M1780.7188,526.0762 L1779.3594,522.7012 L1777.9844,526.0762 L1780.7188,526.0762 Z " fill="#000000"/><text fill="#000000" font-family="sans-serif" font-size="14" font-style="italic" lengthAdjust="spacing" textLength="49" x="1799.75" y="531.8105">Usuario</text><line style="stroke:#181818;stroke-width:0.5;" x1="1598.5" x2="2017.5" y1="542.0137" y2="542.0137"/><rect fill="none" height="6" style="stroke:#C82930;stroke-width:1.0;" width="6" x="1605.5" y="553.8242"/><text fill="#000000" font-family="sans-serif" font-size="14" lengthAdjust="spacing" textLength="76" x="1617.5" y="561.1211">String nome</text><rect fill="none" height="6" style="stroke:#C82930;stroke-width:1.0;" width="6" x="1605.5" y="572.4453"/><text fill="#000000" font-family="sans-serif" font-size="14" lengthAdjust="spacing" textLength="76" x="1617.5" y="579.7422">int matricula</text><rect fill="none" height="6" style="stroke:#C82930;stroke-width:1.0;" width="6" x="1605.5" y="591.0664"/><text fill="#000000" font-family="sans-serif" font-size="14" lengthAdjust="spacing" textLength="339" x="1617.5" y="598.3633">ArrayList&lt;Emprestimo&lt;? extends Item&gt;&gt; emprestados</text><line style="stroke:#181818;stroke-width:0.5;" x1="1598.5" x2="2017.5" y1="605.877" y2="605.877"/><ellipse cx="1608.5" cy="620.6875" fill="#84BE84" rx="3" ry="3" style="stroke:#038048;stroke-width:1.0;"/><text fill="#000000" font-family="sans-serif" font-size="14" lengthAdjust="spacing" textLength="395" x="1617.5" y="624.9844">void setEmprestados(ArrayList&lt;Emprestimo&lt;? extends Item&gt;&gt;)</text><ellipse cx="1608.5" cy="639.3086" fill="#84BE84" rx="3" ry="3" style="stroke:#038048;stroke-width:1.0;"/><text fill="#000000" font-family="sans-serif" font-size="14" font-style="italic" lengthAdjust="spacing" textLength="273" x="1617.5" y="643.6055">double multa(Emprestimo&lt;? extends Item&gt;)</text><ellipse cx="1608.5" cy="657.9297" fill="#84BE84" rx="3" ry="3" style="stroke:#038048;stroke-width:1.0;"/><text fill="#000000" font-family="sans-serif" font-size="14" lengthAdjust="spacing" textLength="89" x="1617.5" y="662.2266">void imprimir()</text></g><!--class Aluno--><g id="elem_Aluno"><rect codeLine="39" fill="#F1F1F1" height="103.8633" id="Aluno" rx="2.5" ry="2.5" style="stroke:#181818;stroke-width:0.5;" width="298" x="1323" y="730.0137"/><ellipse cx="1449.75" cy="746.0137" fill="#ADD1B2" rx="11" ry="11" style="stroke:#181818;stroke-width:1.0;"/><path d="M1452.5156,741.8887 Q1452.6719,741.6699 1452.8594,741.5605 Q1453.0469,741.4512 1453.2656,741.4512 Q1453.6406,741.4512 1453.875,741.7168 Q1454.1094,741.9668 1454.1094,742.5762 L1454.1094,744.0293 Q1454.1094,744.6387 1453.875,744.9043 Q1453.6406,745.1699 1453.2656,745.1699 Q1452.9219,745.1699 1452.7188,744.9668 Q1452.5156,744.7793 1452.4063,744.2637 Q1452.3594,743.9043 1452.1719,743.7168 Q1451.8438,743.3418 1451.2344,743.123 Q1450.625,742.9043 1450,742.9043 Q1449.2344,742.9043 1448.5938,743.2324 Q1447.9688,743.5605 1447.4688,744.3105 Q1446.9844,745.0605 1446.9844,746.0918 L1446.9844,747.1855 Q1446.9844,748.4199 1447.875,749.248 Q1448.7656,750.0605 1450.3594,750.0605 Q1451.2969,750.0605 1451.9531,749.8105 Q1452.3438,749.6543 1452.7656,749.2168 Q1453.0313,748.9512 1453.1719,748.873 Q1453.3281,748.7949 1453.5313,748.7949 Q1453.8594,748.7949 1454.1094,749.0605 Q1454.375,749.3105 1454.375,749.6543 Q1454.375,749.998 1454.0313,750.4043 Q1453.5313,750.9824 1452.7344,751.3105 Q1451.6563,751.7637 1450.3594,751.7637 Q1448.8438,751.7637 1447.6406,751.1387 Q1446.6563,750.6387 1445.9688,749.5762 Q1445.2813,748.498 1445.2813,747.2168 L1445.2813,746.0605 Q1445.2813,744.7324 1445.8906,743.5918 Q1446.5156,742.4355 1447.6094,741.8262 Q1448.7031,741.2012 1449.9375,741.2012 Q1450.6719,741.2012 1451.3125,741.373 Q1451.9688,741.5293 1452.5156,741.8887 Z " fill="#000000"/><text fill="#000000" font-family="sans-serif" font-size="14" lengthAdjust="spacing" textLength="36" x="1470.25" y="751.8105">Aluno</text><line style="stroke:#181818;stroke-width:0.5;" x1="1324" x2="1620" y1="762.0137" y2="762.0137"/><rect fill="none" height="6" style="stroke:#C82930;stroke-width:1.0;" width="6" x="1331" y="773.8242"/><text fill="#000000" font-family="sans-serif" font-size="14" lengthAdjust="spacing" textLength="76" x="1343" y="781.1211">String curso</text><line style="stroke:#181818;stroke-width:0.5;" x1="1324" x2="1620" y1="788.6348" y2="788.6348"/><ellipse cx="1334" cy="803.4453" fill="#84BE84" rx="3" ry="3" style="stroke:#038048;stroke-width:1.0;"/><text fill="#000000" font-family="sans-serif" font-size="14" lengthAdjust="spacing" textLength="272" x="1343" y="807.7422">double multa(Emprestimo&lt;? extends Item&gt;)</text><ellipse cx="1334" cy="822.0664" fill="#84BE84" rx="3" ry="3" style="stroke:#038048;stroke-width:1.0;"/><text fill="#000000" font-family="sans-serif" font-size="14" lengthAdjust="spacing" textLength="89" x="1343" y="826.3633">void imprimir()</text></g><!--class AssessorTecnico--><g id="elem_AssessorTecnico"><rect codeLine="44" fill="#F1F1F1" height="103.8633" id="AssessorTecnico" rx="2.5" ry="2.5" style="stroke:#181818;stroke-width:0.5;" width="303" x="1656.5" y="730.0137"/><ellipse cx="1749.75" cy="746.0137" fill="#ADD1B2" rx="11" ry="11" style="stroke:#181818;stroke-width:1.0;"/><path d="M1752.5156,741.8887 Q1752.6719,741.6699 1752.8594,741.5605 Q1753.0469,741.4512 1753.2656,741.4512 Q1753.6406,741.4512 1753.875,741.7168 Q1754.1094,741.9668 1754.1094,742.5762 L1754.1094,744.0293 Q1754.1094,744.6387 1753.875,744.9043 Q1753.6406,745.1699 1753.2656,745.1699 Q1752.9219,745.1699 1752.7188,744.9668 Q1752.5156,744.7793 1752.4063,744.2637 Q1752.3594,743.9043 1752.1719,743.7168 Q1751.8438,743.3418 1751.2344,743.123 Q1750.625,742.9043 1750,742.9043 Q1749.2344,742.9043 1748.5938,743.2324 Q1747.9688,743.5605 1747.4688,744.3105 Q1746.9844,745.0605 1746.9844,746.0918 L1746.9844,747.1855 Q1746.9844,748.4199 1747.875,749.248 Q1748.7656,750.0605 1750.3594,750.0605 Q1751.2969,750.0605 1751.9531,749.8105 Q1752.3438,749.6543 1752.7656,749.2168 Q1753.0313,748.9512 1753.1719,748.873 Q1753.3281,748.7949 1753.5313,748.7949 Q1753.8594,748.7949 1754.1094,749.0605 Q1754.375,749.3105 1754.375,749.6543 Q1754.375,749.998 1754.0313,750.4043 Q1753.5313,750.9824 1752.7344,751.3105 Q1751.6563,751.7637 1750.3594,751.7637 Q1748.8438,751.7637 1747.6406,751.1387 Q1746.6563,750.6387 1745.9688,749.5762 Q1745.2813,748.498 1745.2813,747.2168 L1745.2813,746.0605 Q1745.2813,744.7324 1745.8906,743.5918 Q1746.5156,742.4355 1747.6094,741.8262 Q1748.7031,741.2012 1749.9375,741.2012 Q1750.6719,741.2012 1751.3125,741.373 Q1751.9688,741.5293 1752.5156,741.8887 Z " fill="#000000"/><text fill="#000000" font-family="sans-serif" font-size="14" lengthAdjust="spacing" textLength="108" x="1770.25" y="751.8105">AssessorTecnico</text><line style="stroke:#181818;stroke-width:0.5;" x1="1657.5" x2="1958.5" y1="762.0137" y2="762.0137"/><rect fill="none" height="6" style="stroke:#C82930;stroke-width:1.0;" width="6" x="1664.5" y="773.8242"/><text fill="#000000" font-family="sans-serif" font-size="14" lengthAdjust="spacing" textLength="79" x="1676.5" y="781.1211">String secao</text><line style="stroke:#181818;stroke-width:0.5;" x1="1657.5" x2="1958.5" y1="788.6348" y2="788.6348"/><ellipse cx="1667.5" cy="803.4453" fill="#84BE84" rx="3" ry="3" style="stroke:#038048;stroke-width:1.0;"/><text fill="#000000" font-family="sans-serif" font-size="14" lengthAdjust="spacing" textLength="277" x="1676.5" y="807.7422">double multa(Emprestimo&lt;? extends Item&gt;))</text><ellipse cx="1667.5" cy="822.0664" fill="#84BE84" rx="3" ry="3" style="stroke:#038048;stroke-width:1.0;"/><text fill="#000000" font-family="sans-serif" font-size="14" lengthAdjust="spacing" textLength="89" x="1676.5" y="826.3633">void imprimir()</text></g><!--class Professor--><g id="elem_Professor"><rect codeLine="49" fill="#F1F1F1" height="103.8633" id="Professor" rx="2.5" ry="2.5" style="stroke:#181818;stroke-width:0.5;" width="298" x="1995" y="730.0137"/><ellipse cx="2109.25" cy="746.0137" fill="#ADD1B2" rx="11" ry="11" style="stroke:#181818;stroke-width:1.0;"/><path d="M2112.0156,741.8887 Q2112.1719,741.6699 2112.3594,741.5605 Q2112.5469,741.4512 2112.7656,741.4512 Q2113.1406,741.4512 2113.375,741.7168 Q2113.6094,741.9668 2113.6094,742.5762 L2113.6094,744.0293 Q2113.6094,744.6387 2113.375,744.9043 Q2113.1406,745.1699 2112.7656,745.1699 Q2112.4219,745.1699 2112.2188,744.9668 Q2112.0156,744.7793 2111.9063,744.2637 Q2111.8594,743.9043 2111.6719,743.7168 Q2111.3438,743.3418 2110.7344,743.123 Q2110.125,742.9043 2109.5,742.9043 Q2108.7344,742.9043 2108.0938,743.2324 Q2107.4688,743.5605 2106.9688,744.3105 Q2106.4844,745.0605 2106.4844,746.0918 L2106.4844,747.1855 Q2106.4844,748.4199 2107.375,749.248 Q2108.2656,750.0605 2109.8594,750.0605 Q2110.7969,750.0605 2111.4531,749.8105 Q2111.8438,749.6543 2112.2656,749.2168 Q2112.5313,748.9512 2112.6719,748.873 Q2112.8281,748.7949 2113.0313,748.7949 Q2113.3594,748.7949 2113.6094,749.0605 Q2113.875,749.3105 2113.875,749.6543 Q2113.875,749.998 2113.5313,750.4043 Q2113.0313,750.9824 2112.2344,751.3105 Q2111.1563,751.7637 2109.8594,751.7637 Q2108.3438,751.7637 2107.1406,751.1387 Q2106.1563,750.6387 2105.4688,749.5762 Q2104.7813,748.498 2104.7813,747.2168 L2104.7813,746.0605 Q2104.7813,744.7324 2105.3906,743.5918 Q2106.0156,742.4355 2107.1094,741.8262 Q2108.2031,741.2012 2109.4375,741.2012 Q2110.1719,741.2012 2110.8125,741.373 Q2111.4688,741.5293 2112.0156,741.8887 Z " fill="#000000"/><text fill="#000000" font-family="sans-serif" font-size="14" lengthAdjust="spacing" textLength="61" x="2129.75" y="751.8105">Professor</text><line style="stroke:#181818;stroke-width:0.5;" x1="1996" x2="2292" y1="762.0137" y2="762.0137"/><rect fill="none" height="6" style="stroke:#C82930;stroke-width:1.0;" width="6" x="2003" y="773.8242"/><text fill="#000000" font-family="sans-serif" font-size="14" lengthAdjust="spacing" textLength="129" x="2015" y="781.1211">String departamento</text><line style="stroke:#181818;stroke-width:0.5;" x1="1996" x2="2292" y1="788.6348" y2="788.6348"/><ellipse cx="2006" cy="803.4453" fill="#84BE84" rx="3" ry="3" style="stroke:#038048;stroke-width:1.0;"/><text fill="#000000" font-family="sans-serif" font-size="14" lengthAdjust="spacing" textLength="272" x="2015" y="807.7422">double multa(Emprestimo&lt;? extends Item&gt;)</text><ellipse cx="2006" cy="822.0664" fill="#84BE84" rx="3" ry="3" style="stroke:#038048;stroke-width:1.0;"/><text fill="#000000" font-family="sans-serif" font-size="14" lengthAdjust="spacing" textLength="89" x="2015" y="826.3633">void imprimir()</text></g><!--class Emprestavel--><g id="elem_Emprestavel"><rect codeLine="59" fill="#F1F1F1" height="85.2422" id="Emprestavel" rx="2.5" ry="2.5" style="stroke:#181818;stroke-width:0.5;" width="139" x="949.5" y="739.5137"/><ellipse cx="978" cy="755.5137" fill="#B4A7E5" rx="11" ry="11" style="stroke:#181818;stroke-width:1.0;"/><path d="M978.9531,752.1543 L978.9531,758.8105 L980.6719,758.8105 Q981.2813,758.8105 981.5469,759.0449 Q981.8125,759.2793 981.8125,759.6699 Q981.8125,760.0449 981.5469,760.2793 Q981.2813,760.5137 980.6719,760.5137 L975.5313,760.5137 Q974.9219,760.5137 974.6563,760.2793 Q974.3906,760.0449 974.3906,759.6543 Q974.3906,759.2793 974.6563,759.0449 Q974.9219,758.8105 975.5313,758.8105 L977.25,758.8105 L977.25,752.1543 L975.5313,752.1543 Q974.9219,752.1543 974.6563,751.9199 Q974.3906,751.6855 974.3906,751.2949 Q974.3906,750.9199 974.6563,750.6855 Q974.9219,750.4512 975.5313,750.4512 L980.6719,750.4512 Q981.2813,750.4512 981.5469,750.6855 Q981.8125,750.9199 981.8125,751.2949 Q981.8125,751.6855 981.5469,751.9199 Q981.2813,752.1543 980.6719,752.1543 L978.9531,752.1543 Z " fill="#000000"/><text fill="#000000" font-family="sans-serif" font-size="14" font-style="italic" lengthAdjust="spacing" textLength="77" x="995" y="761.3105">Emprestavel</text><line style="stroke:#181818;stroke-width:0.5;" x1="950.5" x2="1087.5" y1="771.5137" y2="771.5137"/><line style="stroke:#181818;stroke-width:0.5;" x1="950.5" x2="1087.5" y1="779.5137" y2="779.5137"/><polygon fill="#4177AF" points="960.5,790.3242,956.5,796.3242,964.5,796.3242" style="stroke:#1963A0;stroke-width:1.0;"/><text fill="#000000" font-family="sans-serif" font-size="14" lengthAdjust="spacing" textLength="113" x="969.5" y="798.6211">void emprestimo()</text><polygon fill="#4177AF" points="960.5,808.9453,956.5,814.9453,964.5,814.9453" style="stroke:#1963A0;stroke-width:1.0;"/><text fill="#000000" font-family="sans-serif" font-size="14" lengthAdjust="spacing" textLength="105" x="969.5" y="817.2422">void devolucao()</text></g><!--class Item--><g id="elem_Item"><rect codeLine="63" fill="#F1F1F1" height="141.1055" id="Item" rx="2.5" ry="2.5" style="stroke:#181818;stroke-width:0.5;" width="139" x="949.5" y="894.0137"/><ellipse cx="1001.25" cy="910.0137" fill="#A9DCDF" rx="11" ry="11" style="stroke:#181818;stroke-width:1.0;"/><path d="M1003.4375,911.7793 L999.2969,911.7793 L998.875,912.8105 L999.2969,912.8105 Q999.9063,912.8105 1000.1719,913.0449 Q1000.4375,913.2793 1000.4375,913.6699 Q1000.4375,914.0449 1000.1719,914.2793 Q999.9063,914.5137 999.2969,914.5137 L997,914.5137 Q996.3906,914.5137 996.1406,914.2793 Q995.875,914.0449 995.875,913.6543 Q995.875,913.2793 996.1563,913.0449 Q996.4219,912.7949 997.0469,912.8105 L999.7188,906.1543 L998.6094,906.1543 Q998,906.1543 997.7344,905.9199 Q997.4688,905.6855 997.4688,905.2949 Q997.4688,904.9199 997.7344,904.6855 Q998,904.4512 998.6094,904.4512 L1002.2813,904.4512 L1005.6719,912.8105 Q1006.2656,912.8105 1006.4531,912.9512 Q1006.8438,913.2168 1006.8438,913.6699 Q1006.8438,914.0449 1006.5781,914.2793 Q1006.3281,914.5137 1005.7188,914.5137 L1003.4219,914.5137 Q1002.8125,914.5137 1002.5469,914.2793 Q1002.2813,914.0449 1002.2813,913.6543 Q1002.2813,913.2793 1002.5469,913.0449 Q1002.8125,912.8105 1003.4219,912.8105 L1003.8438,912.8105 L1003.4375,911.7793 Z M1002.7188,910.0762 L1001.3594,906.7012 L999.9844,910.0762 L1002.7188,910.0762 Z " fill="#000000"/><text fill="#000000" font-family="sans-serif" font-size="14" font-style="italic" lengthAdjust="spacing" textLength="27" x="1021.75" y="915.8105">Item</text><line style="stroke:#181818;stroke-width:0.5;" x1="950.5" x2="1087.5" y1="926.0137" y2="926.0137"/><rect fill="none" height="6" style="stroke:#C82930;stroke-width:1.0;" width="6" x="957.5" y="937.8242"/><text fill="#000000" font-family="sans-serif" font-size="14" lengthAdjust="spacing" textLength="71" x="969.5" y="945.1211">String titulo</text><rect fill="none" height="6" style="stroke:#C82930;stroke-width:1.0;" width="6" x="957.5" y="956.4453"/><text fill="#000000" font-family="sans-serif" font-size="14" lengthAdjust="spacing" textLength="112" x="969.5" y="963.7422">int anoPublicacao</text><line style="stroke:#181818;stroke-width:0.5;" x1="950.5" x2="1087.5" y1="971.2559" y2="971.2559"/><ellipse cx="960.5" cy="986.0664" fill="#84BE84" rx="3" ry="3" style="stroke:#038048;stroke-width:1.0;"/><text fill="#000000" font-family="sans-serif" font-size="14" lengthAdjust="spacing" textLength="113" x="969.5" y="990.3633">void emprestimo()</text><ellipse cx="960.5" cy="1004.6875" fill="#84BE84" rx="3" ry="3" style="stroke:#038048;stroke-width:1.0;"/><text fill="#000000" font-family="sans-serif" font-size="14" lengthAdjust="spacing" textLength="105" x="969.5" y="1008.9844">void devolucao()</text><ellipse cx="960.5" cy="1023.3086" fill="#84BE84" rx="3" ry="3" style="stroke:#038048;stroke-width:1.0;"/><text fill="#000000" font-family="sans-serif" font-size="14" lengthAdjust="spacing" textLength="89" x="969.5" y="1027.6055">void imprimir()</text></g><!--class CD--><g id="elem_CD"><rect codeLine="70" fill="#F1F1F1" height="103.8633" id="CD" rx="2.5" ry="2.5" style="stroke:#181818;stroke-width:0.5;" width="132" x="794" y="1095.0137"/><ellipse cx="845.75" cy="1111.0137" fill="#ADD1B2" rx="11" ry="11" style="stroke:#181818;stroke-width:1.0;"/><path d="M848.5156,1106.8887 Q848.6719,1106.6699 848.8594,1106.5605 Q849.0469,1106.4512 849.2656,1106.4512 Q849.6406,1106.4512 849.875,1106.7168 Q850.1094,1106.9668 850.1094,1107.5762 L850.1094,1109.0293 Q850.1094,1109.6387 849.875,1109.9043 Q849.6406,1110.1699 849.2656,1110.1699 Q848.9219,1110.1699 848.7188,1109.9668 Q848.5156,1109.7793 848.4063,1109.2637 Q848.3594,1108.9043 848.1719,1108.7168 Q847.8438,1108.3418 847.2344,1108.123 Q846.625,1107.9043 846,1107.9043 Q845.2344,1107.9043 844.5938,1108.2324 Q843.9688,1108.5605 843.4688,1109.3105 Q842.9844,1110.0605 842.9844,1111.0918 L842.9844,1112.1855 Q842.9844,1113.4199 843.875,1114.248 Q844.7656,1115.0605 846.3594,1115.0605 Q847.2969,1115.0605 847.9531,1114.8105 Q848.3438,1114.6543 848.7656,1114.2168 Q849.0313,1113.9512 849.1719,1113.873 Q849.3281,1113.7949 849.5313,1113.7949 Q849.8594,1113.7949 850.1094,1114.0605 Q850.375,1114.3105 850.375,1114.6543 Q850.375,1114.998 850.0313,1115.4043 Q849.5313,1115.9824 848.7344,1116.3105 Q847.6563,1116.7637 846.3594,1116.7637 Q844.8438,1116.7637 843.6406,1116.1387 Q842.6563,1115.6387 841.9688,1114.5762 Q841.2813,1113.498 841.2813,1112.2168 L841.2813,1111.0605 Q841.2813,1109.7324 841.8906,1108.5918 Q842.5156,1107.4355 843.6094,1106.8262 Q844.7031,1106.2012 845.9375,1106.2012 Q846.6719,1106.2012 847.3125,1106.373 Q847.9688,1106.5293 848.5156,1106.8887 Z " fill="#000000"/><text fill="#000000" font-family="sans-serif" font-size="14" lengthAdjust="spacing" textLength="20" x="866.25" y="1116.8105">CD</text><line style="stroke:#181818;stroke-width:0.5;" x1="795" x2="925" y1="1127.0137" y2="1127.0137"/><rect fill="none" height="6" style="stroke:#C82930;stroke-width:1.0;" width="6" x="802" y="1138.8242"/><text fill="#000000" font-family="sans-serif" font-size="14" lengthAdjust="spacing" textLength="64" x="814" y="1146.1211">int volume</text><rect fill="none" height="6" style="stroke:#C82930;stroke-width:1.0;" width="6" x="802" y="1157.4453"/><text fill="#000000" font-family="sans-serif" font-size="14" lengthAdjust="spacing" textLength="106" x="814" y="1164.7422">String gravadora</text><line style="stroke:#181818;stroke-width:0.5;" x1="795" x2="925" y1="1172.2559" y2="1172.2559"/><ellipse cx="805" cy="1187.0664" fill="#84BE84" rx="3" ry="3" style="stroke:#038048;stroke-width:1.0;"/><text fill="#000000" font-family="sans-serif" font-size="14" lengthAdjust="spacing" textLength="89" x="814" y="1191.3633">void imprimir()</text></g><!--class Livro--><g id="elem_Livro"><rect codeLine="75" fill="#F1F1F1" height="85.2422" id="Livro" rx="2.5" ry="2.5" style="stroke:#181818;stroke-width:0.5;" width="115" x="961.5" y="1104.5137"/><ellipse cx="999.9" cy="1120.5137" fill="#ADD1B2" rx="11" ry="11" style="stroke:#181818;stroke-width:1.0;"/><path d="M1002.6656,1116.3887 Q1002.8219,1116.1699 1003.0094,1116.0605 Q1003.1969,1115.9512 1003.4156,1115.9512 Q1003.7906,1115.9512 1004.025,1116.2168 Q1004.2594,1116.4668 1004.2594,1117.0762 L1004.2594,1118.5293 Q1004.2594,1119.1387 1004.025,1119.4043 Q1003.7906,1119.6699 1003.4156,1119.6699 Q1003.0719,1119.6699 1002.8688,1119.4668 Q1002.6656,1119.2793 1002.5563,1118.7637 Q1002.5094,1118.4043 1002.3219,1118.2168 Q1001.9938,1117.8418 1001.3844,1117.623 Q1000.775,1117.4043 1000.15,1117.4043 Q999.3844,1117.4043 998.7438,1117.7324 Q998.1188,1118.0605 997.6188,1118.8105 Q997.1344,1119.5605 997.1344,1120.5918 L997.1344,1121.6855 Q997.1344,1122.9199 998.025,1123.748 Q998.9156,1124.5605 1000.5094,1124.5605 Q1001.4469,1124.5605 1002.1031,1124.3105 Q1002.4938,1124.1543 1002.9156,1123.7168 Q1003.1813,1123.4512 1003.3219,1123.373 Q1003.4781,1123.2949 1003.6813,1123.2949 Q1004.0094,1123.2949 1004.2594,1123.5605 Q1004.525,1123.8105 1004.525,1124.1543 Q1004.525,1124.498 1004.1813,1124.9043 Q1003.6813,1125.4824 1002.8844,1125.8105 Q1001.8063,1126.2637 1000.5094,1126.2637 Q998.9938,1126.2637 997.7906,1125.6387 Q996.8063,1125.1387 996.1188,1124.0762 Q995.4313,1122.998 995.4313,1121.7168 L995.4313,1120.5605 Q995.4313,1119.2324 996.0406,1118.0918 Q996.6656,1116.9355 997.7594,1116.3262 Q998.8531,1115.7012 1000.0875,1115.7012 Q1000.8219,1115.7012 1001.4625,1115.873 Q1002.1188,1116.0293 1002.6656,1116.3887 Z " fill="#000000"/><text fill="#000000" font-family="sans-serif" font-size="14" lengthAdjust="spacing" textLength="31" x="1019.1" y="1126.3105">Livro</text><line style="stroke:#181818;stroke-width:0.5;" x1="962.5" x2="1075.5" y1="1136.5137" y2="1136.5137"/><rect fill="none" height="6" style="stroke:#C82930;stroke-width:1.0;" width="6" x="969.5" y="1148.3242"/><text fill="#000000" font-family="sans-serif" font-size="14" lengthAdjust="spacing" textLength="85" x="981.5" y="1155.6211">String editora</text><line style="stroke:#181818;stroke-width:0.5;" x1="962.5" x2="1075.5" y1="1163.1348" y2="1163.1348"/><ellipse cx="972.5" cy="1177.9453" fill="#84BE84" rx="3" ry="3" style="stroke:#038048;stroke-width:1.0;"/><text fill="#000000" font-family="sans-serif" font-size="14" lengthAdjust="spacing" textLength="89" x="981.5" y="1182.2422">void imprimir()</text></g><!--class Revista--><g id="elem_Revista"><rect codeLine="79" fill="#F1F1F1" height="85.2422" id="Revista" rx="2.5" ry="2.5" style="stroke:#181818;stroke-width:0.5;" width="115" x="1111.5" y="1104.5137"/><ellipse cx="1142.7" cy="1120.5137" fill="#ADD1B2" rx="11" ry="11" style="stroke:#181818;stroke-width:1.0;"/><path d="M1145.4656,1116.3887 Q1145.6219,1116.1699 1145.8094,1116.0605 Q1145.9969,1115.9512 1146.2156,1115.9512 Q1146.5906,1115.9512 1146.825,1116.2168 Q1147.0594,1116.4668 1147.0594,1117.0762 L1147.0594,1118.5293 Q1147.0594,1119.1387 1146.825,1119.4043 Q1146.5906,1119.6699 1146.2156,1119.6699 Q1145.8719,1119.6699 1145.6688,1119.4668 Q1145.4656,1119.2793 1145.3563,1118.7637 Q1145.3094,1118.4043 1145.1219,1118.2168 Q1144.7938,1117.8418 1144.1844,1117.623 Q1143.575,1117.4043 1142.95,1117.4043 Q1142.1844,1117.4043 1141.5438,1117.7324 Q1140.9188,1118.0605 1140.4188,1118.8105 Q1139.9344,1119.5605 1139.9344,1120.5918 L1139.9344,1121.6855 Q1139.9344,1122.9199 1140.825,1123.748 Q1141.7156,1124.5605 1143.3094,1124.5605 Q1144.2469,1124.5605 1144.9031,1124.3105 Q1145.2938,1124.1543 1145.7156,1123.7168 Q1145.9813,1123.4512 1146.1219,1123.373 Q1146.2781,1123.2949 1146.4813,1123.2949 Q1146.8094,1123.2949 1147.0594,1123.5605 Q1147.325,1123.8105 1147.325,1124.1543 Q1147.325,1124.498 1146.9813,1124.9043 Q1146.4813,1125.4824 1145.6844,1125.8105 Q1144.6063,1126.2637 1143.3094,1126.2637 Q1141.7938,1126.2637 1140.5906,1125.6387 Q1139.6063,1125.1387 1138.9188,1124.0762 Q1138.2313,1122.998 1138.2313,1121.7168 L1138.2313,1120.5605 Q1138.2313,1119.2324 1138.8406,1118.0918 Q1139.4656,1116.9355 1140.5594,1116.3262 Q1141.6531,1115.7012 1142.8875,1115.7012 Q1143.6219,1115.7012 1144.2625,1115.873 Q1144.9188,1116.0293 1145.4656,1116.3887 Z " fill="#000000"/><text fill="#000000" font-family="sans-serif" font-size="14" lengthAdjust="spacing" textLength="47" x="1160.3" y="1126.3105">Revista</text><line style="stroke:#181818;stroke-width:0.5;" x1="1112.5" x2="1225.5" y1="1136.5137" y2="1136.5137"/><rect fill="none" height="6" style="stroke:#C82930;stroke-width:1.0;" width="6" x="1119.5" y="1148.3242"/><text fill="#000000" font-family="sans-serif" font-size="14" lengthAdjust="spacing" textLength="64" x="1131.5" y="1155.6211">int volume</text><line style="stroke:#181818;stroke-width:0.5;" x1="1112.5" x2="1225.5" y1="1163.1348" y2="1163.1348"/><ellipse cx="1122.5" cy="1177.9453" fill="#84BE84" rx="3" ry="3" style="stroke:#038048;stroke-width:1.0;"/><text fill="#000000" font-family="sans-serif" font-size="14" lengthAdjust="spacing" textLength="89" x="1131.5" y="1182.2422">void imprimir()</text></g><!--class InvalidItemException--><g id="elem_InvalidItemException"><rect codeLine="89" fill="#F1F1F1" height="48" id="InvalidItemException" rx="2.5" ry="2.5" style="stroke:#181818;stroke-width:0.5;" width="159" x="142.5" y="758.0137"/><ellipse cx="157.5" cy="774.0137" fill="#ADD1B2" rx="11" ry="11" style="stroke:#181818;stroke-width:1.0;"/><path d="M160.2656,769.8887 Q160.4219,769.6699 160.6094,769.5605 Q160.7969,769.4512 161.0156,769.4512 Q161.3906,769.4512 161.625,769.7168 Q161.8594,769.9668 161.8594,770.5762 L161.8594,772.0293 Q161.8594,772.6387 161.625,772.9043 Q161.3906,773.1699 161.0156,773.1699 Q160.6719,773.1699 160.4688,772.9668 Q160.2656,772.7793 160.1563,772.2637 Q160.1094,771.9043 159.9219,771.7168 Q159.5938,771.3418 158.9844,771.123 Q158.375,770.9043 157.75,770.9043 Q156.9844,770.9043 156.3438,771.2324 Q155.7188,771.5605 155.2188,772.3105 Q154.7344,773.0605 154.7344,774.0918 L154.7344,775.1855 Q154.7344,776.4199 155.625,777.248 Q156.5156,778.0605 158.1094,778.0605 Q159.0469,778.0605 159.7031,777.8105 Q160.0938,777.6543 160.5156,777.2168 Q160.7813,776.9512 160.9219,776.873 Q161.0781,776.7949 161.2813,776.7949 Q161.6094,776.7949 161.8594,777.0605 Q162.125,777.3105 162.125,777.6543 Q162.125,777.998 161.7813,778.4043 Q161.2813,778.9824 160.4844,779.3105 Q159.4063,779.7637 158.1094,779.7637 Q156.5938,779.7637 155.3906,779.1387 Q154.4063,778.6387 153.7188,777.5762 Q153.0313,776.498 153.0313,775.2168 L153.0313,774.0605 Q153.0313,772.7324 153.6406,771.5918 Q154.2656,770.4355 155.3594,769.8262 Q156.4531,769.2012 157.6875,769.2012 Q158.4219,769.2012 159.0625,769.373 Q159.7188,769.5293 160.2656,769.8887 Z " fill="#000000"/><text fill="#000000" font-family="sans-serif" font-size="14" lengthAdjust="spacing" textLength="127" x="171.5" y="779.8105">InvalidItemException</text><line style="stroke:#181818;stroke-width:0.5;" x1="143.5" x2="300.5" y1="790.0137" y2="790.0137"/><line style="stroke:#181818;stroke-width:0.5;" x1="143.5" x2="300.5" y1="798.0137" y2="798.0137"/></g><!--class InvalidUserException--><g id="elem_InvalidUserException"><rect codeLine="90" fill="#F1F1F1" height="48" id="InvalidUserException" rx="2.5" ry="2.5" style="stroke:#181818;stroke-width:0.5;" width="162" x="465" y="758.0137"/><ellipse cx="480" cy="774.0137" fill="#ADD1B2" rx="11" ry="11" style="stroke:#181818;stroke-width:1.0;"/><path d="M482.7656,769.8887 Q482.9219,769.6699 483.1094,769.5605 Q483.2969,769.4512 483.5156,769.4512 Q483.8906,769.4512 484.125,769.7168 Q484.3594,769.9668 484.3594,770.5762 L484.3594,772.0293 Q484.3594,772.6387 484.125,772.9043 Q483.8906,773.1699 483.5156,773.1699 Q483.1719,773.1699 482.9688,772.9668 Q482.7656,772.7793 482.6563,772.2637 Q482.6094,771.9043 482.4219,771.7168 Q482.0938,771.3418 481.4844,771.123 Q480.875,770.9043 480.25,770.9043 Q479.4844,770.9043 478.8438,771.2324 Q478.2188,771.5605 477.7188,772.3105 Q477.2344,773.0605 477.2344,774.0918 L477.2344,775.1855 Q477.2344,776.4199 478.125,777.248 Q479.0156,778.0605 480.6094,778.0605 Q481.5469,778.0605 482.2031,777.8105 Q482.5938,777.6543 483.0156,777.2168 Q483.2813,776.9512 483.4219,776.873 Q483.5781,776.7949 483.7813,776.7949 Q484.1094,776.7949 484.3594,777.0605 Q484.625,777.3105 484.625,777.6543 Q484.625,777.998 484.2813,778.4043 Q483.7813,778.9824 482.9844,779.3105 Q481.9063,779.7637 480.6094,779.7637 Q479.0938,779.7637 477.8906,779.1387 Q476.9063,778.6387 476.2188,777.5762 Q475.5313,776.498 475.5313,775.2168 L475.5313,774.0605 Q475.5313,772.7324 476.1406,771.5918 Q476.7656,770.4355 477.8594,769.8262 Q478.9531,769.2012 480.1875,769.2012 Q480.9219,769.2012 481.5625,769.373 Q482.2188,769.5293 482.7656,769.8887 Z " fill="#000000"/><text fill="#000000" font-family="sans-serif" font-size="14" lengthAdjust="spacing" textLength="130" x="494" y="779.8105">InvalidUserException</text><line style="stroke:#181818;stroke-width:0.5;" x1="466" x2="626" y1="790.0137" y2="790.0137"/><line style="stroke:#181818;stroke-width:0.5;" x1="466" x2="626" y1="798.0137" y2="798.0137"/></g><!--class ItemNotFoundException--><g id="elem_ItemNotFoundException"><rect codeLine="91" fill="#F1F1F1" height="48" id="ItemNotFoundException" rx="2.5" ry="2.5" style="stroke:#181818;stroke-width:0.5;" width="181" x="70.5" y="940.5137"/><ellipse cx="85.5" cy="956.5137" fill="#ADD1B2" rx="11" ry="11" style="stroke:#181818;stroke-width:1.0;"/><path d="M88.2656,952.3887 Q88.4219,952.1699 88.6094,952.0605 Q88.7969,951.9512 89.0156,951.9512 Q89.3906,951.9512 89.625,952.2168 Q89.8594,952.4668 89.8594,953.0762 L89.8594,954.5293 Q89.8594,955.1387 89.625,955.4043 Q89.3906,955.6699 89.0156,955.6699 Q88.6719,955.6699 88.4688,955.4668 Q88.2656,955.2793 88.1563,954.7637 Q88.1094,954.4043 87.9219,954.2168 Q87.5938,953.8418 86.9844,953.623 Q86.375,953.4043 85.75,953.4043 Q84.9844,953.4043 84.3438,953.7324 Q83.7188,954.0605 83.2188,954.8105 Q82.7344,955.5605 82.7344,956.5918 L82.7344,957.6855 Q82.7344,958.9199 83.625,959.748 Q84.5156,960.5605 86.1094,960.5605 Q87.0469,960.5605 87.7031,960.3105 Q88.0938,960.1543 88.5156,959.7168 Q88.7813,959.4512 88.9219,959.373 Q89.0781,959.2949 89.2813,959.2949 Q89.6094,959.2949 89.8594,959.5605 Q90.125,959.8105 90.125,960.1543 Q90.125,960.498 89.7813,960.9043 Q89.2813,961.4824 88.4844,961.8105 Q87.4063,962.2637 86.1094,962.2637 Q84.5938,962.2637 83.3906,961.6387 Q82.4063,961.1387 81.7188,960.0762 Q81.0313,958.998 81.0313,957.7168 L81.0313,956.5605 Q81.0313,955.2324 81.6406,954.0918 Q82.2656,952.9355 83.3594,952.3262 Q84.4531,951.7012 85.6875,951.7012 Q86.4219,951.7012 87.0625,951.873 Q87.7188,952.0293 88.2656,952.3887 Z " fill="#000000"/><text fill="#000000" font-family="sans-serif" font-size="14" lengthAdjust="spacing" textLength="149" x="99.5" y="962.3105">ItemNotFoundException</text><line style="stroke:#181818;stroke-width:0.5;" x1="71.5" x2="250.5" y1="972.5137" y2="972.5137"/><line style="stroke:#181818;stroke-width:0.5;" x1="71.5" x2="250.5" y1="980.5137" y2="980.5137"/></g><!--class UnavailableItemException--><g id="elem_UnavailableItemException"><rect codeLine="92" fill="#F1F1F1" height="48" id="UnavailableItemException" rx="2.5" ry="2.5" style="stroke:#181818;stroke-width:0.5;" width="192" x="287" y="940.5137"/><ellipse cx="302" cy="956.5137" fill="#ADD1B2" rx="11" ry="11" style="stroke:#181818;stroke-width:1.0;"/><path d="M304.7656,952.3887 Q304.9219,952.1699 305.1094,952.0605 Q305.2969,951.9512 305.5156,951.9512 Q305.8906,951.9512 306.125,952.2168 Q306.3594,952.4668 306.3594,953.0762 L306.3594,954.5293 Q306.3594,955.1387 306.125,955.4043 Q305.8906,955.6699 305.5156,955.6699 Q305.1719,955.6699 304.9688,955.4668 Q304.7656,955.2793 304.6563,954.7637 Q304.6094,954.4043 304.4219,954.2168 Q304.0938,953.8418 303.4844,953.623 Q302.875,953.4043 302.25,953.4043 Q301.4844,953.4043 300.8438,953.7324 Q300.2188,954.0605 299.7188,954.8105 Q299.2344,955.5605 299.2344,956.5918 L299.2344,957.6855 Q299.2344,958.9199 300.125,959.748 Q301.0156,960.5605 302.6094,960.5605 Q303.5469,960.5605 304.2031,960.3105 Q304.5938,960.1543 305.0156,959.7168 Q305.2813,959.4512 305.4219,959.373 Q305.5781,959.2949 305.7813,959.2949 Q306.1094,959.2949 306.3594,959.5605 Q306.625,959.8105 306.625,960.1543 Q306.625,960.498 306.2813,960.9043 Q305.7813,961.4824 304.9844,961.8105 Q303.9063,962.2637 302.6094,962.2637 Q301.0938,962.2637 299.8906,961.6387 Q298.9063,961.1387 298.2188,960.0762 Q297.5313,958.998 297.5313,957.7168 L297.5313,956.5605 Q297.5313,955.2324 298.1406,954.0918 Q298.7656,952.9355 299.8594,952.3262 Q300.9531,951.7012 302.1875,951.7012 Q302.9219,951.7012 303.5625,951.873 Q304.2188,952.0293 304.7656,952.3887 Z " fill="#000000"/><text fill="#000000" font-family="sans-serif" font-size="14" lengthAdjust="spacing" textLength="160" x="316" y="962.3105">UnavailableItemException</text><line style="stroke:#181818;stroke-width:0.5;" x1="288" x2="478" y1="972.5137" y2="972.5137"/><line style="stroke:#181818;stroke-width:0.5;" x1="288" x2="478" y1="980.5137" y2="980.5137"/></g><!--class UncheckedItemException--><g id="elem_UncheckedItemException"><rect codeLine="93" fill="#F1F1F1" height="48" id="UncheckedItemException" rx="2.5" ry="2.5" style="stroke:#181818;stroke-width:0.5;" width="189" x="288.5" y="566.0137"/><ellipse cx="303.5" cy="582.0137" fill="#ADD1B2" rx="11" ry="11" style="stroke:#181818;stroke-width:1.0;"/><path d="M306.2656,577.8887 Q306.4219,577.6699 306.6094,577.5605 Q306.7969,577.4512 307.0156,577.4512 Q307.3906,577.4512 307.625,577.7168 Q307.8594,577.9668 307.8594,578.5762 L307.8594,580.0293 Q307.8594,580.6387 307.625,580.9043 Q307.3906,581.1699 307.0156,581.1699 Q306.6719,581.1699 306.4688,580.9668 Q306.2656,580.7793 306.1563,580.2637 Q306.1094,579.9043 305.9219,579.7168 Q305.5938,579.3418 304.9844,579.123 Q304.375,578.9043 303.75,578.9043 Q302.9844,578.9043 302.3438,579.2324 Q301.7188,579.5605 301.2188,580.3105 Q300.7344,581.0605 300.7344,582.0918 L300.7344,583.1855 Q300.7344,584.4199 301.625,585.248 Q302.5156,586.0605 304.1094,586.0605 Q305.0469,586.0605 305.7031,585.8105 Q306.0938,585.6543 306.5156,585.2168 Q306.7813,584.9512 306.9219,584.873 Q307.0781,584.7949 307.2813,584.7949 Q307.6094,584.7949 307.8594,585.0605 Q308.125,585.3105 308.125,585.6543 Q308.125,585.998 307.7813,586.4043 Q307.2813,586.9824 306.4844,587.3105 Q305.4063,587.7637 304.1094,587.7637 Q302.5938,587.7637 301.3906,587.1387 Q300.4063,586.6387 299.7188,585.5762 Q299.0313,584.498 299.0313,583.2168 L299.0313,582.0605 Q299.0313,580.7324 299.6406,579.5918 Q300.2656,578.4355 301.3594,577.8262 Q302.4531,577.2012 303.6875,577.2012 Q304.4219,577.2012 305.0625,577.373 Q305.7188,577.5293 306.2656,577.8887 Z " fill="#000000"/><text fill="#000000" font-family="sans-serif" font-size="14" lengthAdjust="spacing" textLength="157" x="317.5" y="587.8105">UncheckedItemException</text><line style="stroke:#181818;stroke-width:0.5;" x1="289.5" x2="476.5" y1="598.0137" y2="598.0137"/><line style="stroke:#181818;stroke-width:0.5;" x1="289.5" x2="476.5" y1="606.0137" y2="606.0137"/></g><!--class UserNotFoundException--><g id="elem_UserNotFoundException"><rect codeLine="94" fill="#F1F1F1" height="48" id="UserNotFoundException" rx="2.5" ry="2.5" style="stroke:#181818;stroke-width:0.5;" width="184" x="514" y="940.5137"/><ellipse cx="529" cy="956.5137" fill="#ADD1B2" rx="11" ry="11" style="stroke:#181818;stroke-width:1.0;"/><path d="M531.7656,952.3887 Q531.9219,952.1699 532.1094,952.0605 Q532.2969,951.9512 532.5156,951.9512 Q532.8906,951.9512 533.125,952.2168 Q533.3594,952.4668 533.3594,953.0762 L533.3594,954.5293 Q533.3594,955.1387 533.125,955.4043 Q532.8906,955.6699 532.5156,955.6699 Q532.1719,955.6699 531.9688,955.4668 Q531.7656,955.2793 531.6563,954.7637 Q531.6094,954.4043 531.4219,954.2168 Q531.0938,953.8418 530.4844,953.623 Q529.875,953.4043 529.25,953.4043 Q528.4844,953.4043 527.8438,953.7324 Q527.2188,954.0605 526.7188,954.8105 Q526.2344,955.5605 526.2344,956.5918 L526.2344,957.6855 Q526.2344,958.9199 527.125,959.748 Q528.0156,960.5605 529.6094,960.5605 Q530.5469,960.5605 531.2031,960.3105 Q531.5938,960.1543 532.0156,959.7168 Q532.2813,959.4512 532.4219,959.373 Q532.5781,959.2949 532.7813,959.2949 Q533.1094,959.2949 533.3594,959.5605 Q533.625,959.8105 533.625,960.1543 Q533.625,960.498 533.2813,960.9043 Q532.7813,961.4824 531.9844,961.8105 Q530.9063,962.2637 529.6094,962.2637 Q528.0938,962.2637 526.8906,961.6387 Q525.9063,961.1387 525.2188,960.0762 Q524.5313,958.998 524.5313,957.7168 L524.5313,956.5605 Q524.5313,955.2324 525.1406,954.0918 Q525.7656,952.9355 526.8594,952.3262 Q527.9531,951.7012 529.1875,951.7012 Q529.9219,951.7012 530.5625,951.873 Q531.2188,952.0293 531.7656,952.3887 Z " fill="#000000"/><text fill="#000000" font-family="sans-serif" font-size="14" lengthAdjust="spacing" textLength="152" x="543" y="962.3105">UserNotFoundException</text><line style="stroke:#181818;stroke-width:0.5;" x1="515" x2="697" y1="972.5137" y2="972.5137"/><line style="stroke:#181818;stroke-width:0.5;" x1="515" x2="697" y1="980.5137" y2="980.5137"/></g><!--class Exception--><g id="elem_Exception"><rect fill="#F1F1F1" height="48" id="Exception" rx="2.5" ry="2.5" style="stroke:#181818;stroke-width:0.5;" width="93" x="336.5" y="758.0137"/><ellipse cx="351.5" cy="774.0137" fill="#ADD1B2" rx="11" ry="11" style="stroke:#181818;stroke-width:1.0;"/><path d="M354.2656,769.8887 Q354.4219,769.6699 354.6094,769.5605 Q354.7969,769.4512 355.0156,769.4512 Q355.3906,769.4512 355.625,769.7168 Q355.8594,769.9668 355.8594,770.5762 L355.8594,772.0293 Q355.8594,772.6387 355.625,772.9043 Q355.3906,773.1699 355.0156,773.1699 Q354.6719,773.1699 354.4688,772.9668 Q354.2656,772.7793 354.1563,772.2637 Q354.1094,771.9043 353.9219,771.7168 Q353.5938,771.3418 352.9844,771.123 Q352.375,770.9043 351.75,770.9043 Q350.9844,770.9043 350.3438,771.2324 Q349.7188,771.5605 349.2188,772.3105 Q348.7344,773.0605 348.7344,774.0918 L348.7344,775.1855 Q348.7344,776.4199 349.625,777.248 Q350.5156,778.0605 352.1094,778.0605 Q353.0469,778.0605 353.7031,777.8105 Q354.0938,777.6543 354.5156,777.2168 Q354.7813,776.9512 354.9219,776.873 Q355.0781,776.7949 355.2813,776.7949 Q355.6094,776.7949 355.8594,777.0605 Q356.125,777.3105 356.125,777.6543 Q356.125,777.998 355.7813,778.4043 Q355.2813,778.9824 354.4844,779.3105 Q353.4063,779.7637 352.1094,779.7637 Q350.5938,779.7637 349.3906,779.1387 Q348.4063,778.6387 347.7188,777.5762 Q347.0313,776.498 347.0313,775.2168 L347.0313,774.0605 Q347.0313,772.7324 347.6406,771.5918 Q348.2656,770.4355 349.3594,769.8262 Q350.4531,769.2012 351.6875,769.2012 Q352.4219,769.2012 353.0625,769.373 Q353.7188,769.5293 354.2656,769.8887 Z " fill="#000000"/><text fill="#000000" font-family="sans-serif" font-size="14" lengthAdjust="spacing" textLength="61" x="365.5" y="779.8105">Exception</text><line style="stroke:#181818;stroke-width:0.5;" x1="337.5" x2="428.5" y1="790.0137" y2="790.0137"/><line style="stroke:#181818;stroke-width:0.5;" x1="337.5" x2="428.5" y1="798.0137" y2="798.0137"/></g><!--link Main to Biblioteca--><g id="link_Main_Biblioteca"><path codeLine="26" d="M770,110.0337 C770,125.1837 770,144.3337 770,164.6937 " fill="none" id="Main-to-Biblioteca" style="stroke:#181818;stroke-width:1.0;stroke-dasharray:7.0,7.0;"/><polygon fill="#181818" points="770,169.8937,774,160.8937,770,164.8937,766,160.8937,770,169.8937" style="stroke:#181818;stroke-width:1.0;"/></g><!--reverse link Biblioteca to usuarios--><g id="link_Biblioteca_usuarios"><path codeLine="27" d="M885.19,321.7037 C1023.91,342.5937 1244.62,385.0437 1295,449.0137 C1297.37,452.0224 1299.2173,456.4104 1300.6348,461.7926 C1300.8119,462.4654 1300.9824,463.1537 1301.1463,463.8568 C1301.2283,464.2084 1301.3086,464.5636 1301.3873,464.9224 " fill="none" id="Biblioteca-backto-usuarios" style="stroke:#181818;stroke-width:1.0;"/><polygon fill="none" points="872.03,319.7537,877.3763,324.5928,883.8994,321.5189,878.5531,316.6798,872.03,319.7537" style="stroke:#181818;stroke-width:1.0;"/></g><!--reverse link Biblioteca to itens--><g id="link_Biblioteca_itens"><path codeLine="28" d="M770,454.3237 C770,522.8337 770,602.9987 770,666.7712 C770,674.7427 770,682.4582 770,689.8627 C770,690.7882 770,691.709 770,692.6247 C770,693.0826 770,693.5392 770,693.9946 " fill="none" id="Biblioteca-backto-itens" style="stroke:#181818;stroke-width:1.0;"/><polygon fill="none" points="770,441.2137,766,447.2137,770,453.2137,774,447.2137,770,441.2137" style="stroke:#181818;stroke-width:1.0;"/></g><!--reverse link Biblioteca to exceptions--><g id="link_Biblioteca_exceptions"><path codeLine="29" d="M654.78,312.7837 C472.71,325.3037 131.17,360.2637 54,449.0137 C33.875,472.1637 31.6225,506.4412 34.525,535.2837 C35.2506,542.4943 36.2984,549.3652 37.4697,555.6377 C37.6161,556.4218 37.7645,557.1965 37.9144,557.9613 " fill="none" id="Biblioteca-backto-exceptions" style="stroke:#181818;stroke-width:1.0;"/><polygon fill="none" points="667.87,311.9037,661.6154,308.3148,655.897,312.708,662.1516,316.2969,667.87,311.9037" style="stroke:#181818;stroke-width:1.0;"/></g><!--reverse link Usuario to Professor--><g id="link_Usuario_Professor"><path codeLine="54" d="M1979.64,680.1337 C2013.97,699.7237 2039.85,715.3637 2063.16,729.7637 " fill="none" id="Usuario-backto-Professor" style="stroke:#181818;stroke-width:1.0;"/><polygon fill="none" points="1976.03,686.1337,1962.08,670.1837,1982.93,673.9537,1976.03,686.1337" style="stroke:#181818;stroke-width:1.0;"/></g><!--reverse link Usuario to AssessorTecnico--><g id="link_Usuario_AssessorTecnico"><path codeLine="55" d="M1808,690.2437 C1808,703.9437 1808,717.5337 1808,729.8537 " fill="none" id="Usuario-backto-AssessorTecnico" style="stroke:#181818;stroke-width:1.0;"/><polygon fill="none" points="1801,690.2137,1808,670.2137,1815,690.2137,1801,690.2137" style="stroke:#181818;stroke-width:1.0;"/></g><!--reverse link Usuario to Aluno--><g id="link_Usuario_Aluno"><path codeLine="56" d="M1636.36,680.1337 C1602.03,699.7237 1576.15,715.3637 1552.84,729.7637 " fill="none" id="Usuario-backto-Aluno" style="stroke:#181818;stroke-width:1.0;"/><polygon fill="none" points="1633.07,673.9537,1653.92,670.1837,1639.97,686.1337,1633.07,673.9537" style="stroke:#181818;stroke-width:1.0;"/></g><!--reverse link Emprestavel to Item--><g id="link_Emprestavel_Item"><path codeLine="83" d="M1019,845.0237 C1019,860.7937 1019,877.8437 1019,893.9537 " fill="none" id="Emprestavel-backto-Item" style="stroke:#181818;stroke-width:1.0;stroke-dasharray:7.0,7.0;"/><polygon fill="none" points="1012,844.8737,1019,824.8737,1026,844.8737,1012,844.8737" style="stroke:#181818;stroke-width:1.0;"/></g><!--reverse link Item to CD--><g id="link_Item_CD"><path codeLine="84" d="M944.45,1050.1437 C931.04,1065.3737 917.43,1080.8237 905.17,1094.7337 " fill="none" id="Item-backto-CD" style="stroke:#181818;stroke-width:1.0;"/><polygon fill="none" points="939.28,1045.4237,957.75,1035.0437,949.79,1054.6737,939.28,1045.4237" style="stroke:#181818;stroke-width:1.0;"/></g><!--reverse link Item to Livro--><g id="link_Item_Livro"><path codeLine="85" d="M1019,1055.1337 C1019,1072.3937 1019,1089.6737 1019,1104.4737 " fill="none" id="Item-backto-Livro" style="stroke:#181818;stroke-width:1.0;"/><polygon fill="none" points="1012,1055.0437,1019,1035.0437,1026,1055.0437,1012,1055.0437" style="stroke:#181818;stroke-width:1.0;"/></g><!--reverse link Item to Revista--><g id="link_Item_Revista"><path codeLine="86" d="M1089.74,1050.6337 C1105.3,1069.3637 1121.11,1088.3937 1134.48,1104.4737 " fill="none" id="Item-backto-Revista" style="stroke:#181818;stroke-width:1.0;"/><polygon fill="none" points="1084.18,1054.8937,1076.78,1035.0437,1094.95,1045.9537,1084.18,1054.8937" style="stroke:#181818;stroke-width:1.0;"/></g><!--link UncheckedItemException to Exception--><g id="link_UncheckedItemException_Exception"><path codeLine="95" d="M383,614.3137 C383,644.9537 383,699.3737 383,737.6837 " fill="none" id="UncheckedItemException-to-Exception" style="stroke:#181818;stroke-width:1.0;"/><polygon fill="none" points="390,737.8237,383,757.8237,376,737.8237,390,737.8237" style="stroke:#181818;stroke-width:1.0;"/></g><!--link InvalidItemException to Exception--><g id="link_InvalidItemException_Exception"><path codeLine="96" d="M301.56,782.0137 C306.43,782.0137 311.31,782.0137 316.19,782.0137 " fill="none" id="InvalidItemException-to-Exception" style="stroke:#181818;stroke-width:1.0;"/><polygon fill="none" points="316.23,775.0137,336.23,782.0137,316.23,789.0137,316.23,775.0137" style="stroke:#181818;stroke-width:1.0;"/></g><!--reverse link Exception to InvalidUserException--><g id="link_Exception_InvalidUserException"><path codeLine="97" d="M450,782.0137 C454.92,782.0137 459.83,782.0137 464.75,782.0137 " fill="none" id="Exception-backto-InvalidUserException" style="stroke:#181818;stroke-width:1.0;"/><polygon fill="none" points="449.8,789.0137,429.8,782.0137,449.8,775.0137,449.8,789.0137" style="stroke:#181818;stroke-width:1.0;"/></g><!--reverse link Exception to ItemNotFoundException--><g id="link_Exception_ItemNotFoundException"><path codeLine="98" d="M361.58,823.4237 C350.72,840.8537 336.18,860.3337 319,874.0137 C300.6,888.6737 290.89,883.2037 270,894.0137 C243.49,907.7337 215.11,925.9537 193.95,940.3037 " fill="none" id="Exception-backto-ItemNotFoundException" style="stroke:#181818;stroke-width:1.0;"/><polygon fill="none" points="355.6,819.7937,371.7,806.0137,367.7,826.8237,355.6,819.7937" style="stroke:#181818;stroke-width:1.0;"/></g><!--reverse link Exception to UnavailableItemException--><g id="link_Exception_UnavailableItemException"><path codeLine="99" d="M383,826.4837 C383,862.3037 383,911.7137 383,940.3737 " fill="none" id="Exception-backto-UnavailableItemException" style="stroke:#181818;stroke-width:1.0;"/><polygon fill="none" points="376,826.2437,383,806.2437,390,826.2437,376,826.2437" style="stroke:#181818;stroke-width:1.0;"/></g><!--reverse link Exception to UserNotFoundException--><g id="link_Exception_UserNotFoundException"><path codeLine="100" d="M405.09,823.7537 C416.12,841.0937 430.8,860.4137 448,874.0137 C466.45,888.6037 476.11,883.2037 497,894.0137 C523.51,907.7337 551.89,925.9537 573.05,940.3037 " fill="none" id="Exception-backto-UserNotFoundException" style="stroke:#181818;stroke-width:1.0;"/><polygon fill="none" points="398.98,827.1737,394.78,806.4037,411.02,820.0237,398.98,827.1737" style="stroke:#181818;stroke-width:1.0;"/></g><!--reverse link usuarios to Emprestimo--><g id="link_usuarios_Emprestimo"><path codeLine="102" d="M1290.4606,590.0137 C1290.2573,590.0137 1290.0539,590.0137 1289.8506,590.0137 C1289.444,590.0137 1289.0374,590.0137 1288.6307,590.0137 C1285.3777,590.0137 1282.1247,590.0137 1278.8717,590.0137 C1272.3657,590.0137 1265.8598,590.0137 1259.3541,590.0137 C1246.3425,590.0137 1233.3313,590.0137 1220.32,590.0137 C1194.2975,590.0137 1168.275,590.0137 1142.25,590.0137 " fill="none" id="usuarios-backto-Emprestimo" style="stroke:#181818;stroke-width:1.0;"/><polygon fill="#181818" points="1290.4606,590.0137,1284.4606,586.0137,1278.4606,590.0137,1284.4606,594.0137,1290.4606,590.0137" style="stroke:#181818;stroke-width:1.0;"/></g><!--reverse link Emprestimo to itens--><g id="link_Emprestimo_itens"><path codeLine="103" d="M914.79,602.9937 C864.71,614.4137 810.71,636.3937 778,678.5137 C774.5513,682.9549 771.8302,687.8551 769.7099,693.034 C769.5773,693.3576 769.4472,693.6824 769.3193,694.0082 C769.2554,694.1711 769.192,694.3343 769.1293,694.4977 " fill="none" id="Emprestimo-backto-itens" style="stroke:#181818;stroke-width:1.0;"/><polygon fill="none" points="927.77,600.2437,921.0728,597.5701,916.0291,602.7238,922.7262,605.3974,927.77,600.2437" style="stroke:#181818;stroke-width:1.0;"/></g><!--SRC=[lLPDRzim3BtlLmZe9LdX77OsChHD2mn8Xs9BJiCEZCocGcKfa6IZGvh-zico72kEb7u0cqw6I56FZu-qDa0VOOt4A5W1Vv1VoDdChUqdOXVbe3Mv1IP8kz6iSxBL1WoZEr9BLf3IcaS_ZM9Y_UltsBdjWjENRCMPD4WXYF52BfI2FtEcJVxDO3abJDGe32WceqvBNJMsAQdQ3nt0SIWe5A2DaasqqVZ8AeMkk86u5SkDGfkJYfiBh2MlCM7jBlO80uUCD2V8gj8KF46XqHyWNAujWKoOez2STQ3qA67qGNGoALPAVGWjBCxrteda2u9F1aMXILkHRO1riUUeaC7sN5BWCp182Z3G1qkwp1egAmeonV78OmtJAMIrucY9vhJYe6wRGXxwjIavdKucqq1oRZzGeCooGmKDRCmI43NW4yMDOT9RDxvlkbWapsyKb3YTahDBjmBwO6Nr0THuphkwzmujKwr2Y90b3YnM6xRBhBd9Vs3hMwIdF_zwMCffK3rzSDwphz5SznwZDyKS3m9jkpHtlbwbgrCwmZY6X5btLZ8Lw7ct_shvk-2LIB97AwNb8F2_ngCrQYtL0gbWD8bCOoZxzo7xABGx9UyTjXIe0ZUWZ1MkCF-DjKx_-RFjgpt2k7d0RSAf4KGm1xhcTCryt9az5RQlKDq3nMuEGeryGDNBS9gEnZ5xqGssQCg32U1-2ucA66OgBYC308IyinLX58vrT1hYUHhY- -HqDJj2tI1hmXxDB9_EMa5jPug23ruvPxLAjXGMp7myz0-icr_eMrDwI-1GHldpPE8glRUwiZl5NiqYcoxLoBx76H5u_rCwfNAlEL43PqKJzhexHhQxkDTIephbPODyb-P6Lg8uuROKjlQCWnqZhrox5FG1wIE-1g_1TVBYVjDILssoHEIuFyTxaqM9Ylihjdxe3nnm5Z-GnPbBEQVuI_h7s0bait-iVCx8uAqMl0FxPz3kBm00]--></g></svg>